# Blender v2.74 (sub 0) OBJ File: ''
# www.blender.org
mtllib spear.mtl
o Cylinder
v 0.010168 0.900000 0.022839
v 0.023369 0.900000 0.008971
v 0.022839 0.900000 -0.010168
v 0.008971 0.900000 -0.023369
v -0.010168 0.900000 -0.022839
v -0.023369 0.900000 -0.008971
v -0.022839 0.900000 0.010168
v -0.008971 0.900000 0.023369
v 0.010168 0.875000 0.022839
v 0.023369 0.875000 0.008971
v 0.022839 0.875000 -0.010168
v 0.008971 0.875000 -0.023369
v -0.010168 0.875000 -0.022839
v -0.023369 0.875000 -0.008971
v -0.022839 0.875000 0.010168
v -0.008971 0.875000 0.023369
v 0.010168 -0.900000 0.022839
v 0.023369 -0.900000 0.008971
v 0.022839 -0.900000 -0.010168
v 0.008971 -0.900000 -0.023369
v -0.010168 -0.900000 -0.022839
v -0.023369 -0.900000 -0.008971
v -0.022839 -0.900000 0.010168
v -0.008971 -0.900000 0.023369
v 0.000000 0.900000 0.000000
v 0.000000 -0.900000 0.000000
v 0.133327 0.875000 0.005923
v 0.133327 0.900000 0.005923
v 0.132796 0.875000 -0.013215
v 0.132796 0.900000 -0.013215
v -0.133327 0.875000 -0.005923
v -0.133327 0.900000 -0.005923
v -0.132796 0.875000 0.013215
v -0.132796 0.900000 0.013215
vt 0.000000 1.000000
vt 0.000000 0.500000
vt 0.125000 0.500000
vt 0.125000 1.000000
vt 0.000000 0.000000
vt 0.125000 0.000000
vt 0.250000 0.500000
vt 0.250000 1.000000
vt 0.250000 0.000000
vt 0.375000 0.500000
vt 0.375000 1.000000
vt 0.375000 0.000000
vt 0.500000 0.500000
vt 0.500000 1.000000
vt 0.500000 0.000000
vt 0.625000 0.500000
vt 0.625000 1.000000
vt 0.625000 0.000000
vt 0.750000 0.500000
vt 0.750000 1.000000
vt 0.750000 0.000000
vt 0.875000 0.500000
vt 0.875000 1.000000
vt 0.875000 0.000000
vt 1.000000 0.500000
vt 1.000000 1.000000
vt 1.000000 0.000000
vn 0.724300 0.000000 0.689500
vn 0.999600 0.000000 -0.027700
vn 0.689500 0.000000 -0.724300
vn -0.027700 0.000000 -0.999600
vn -0.724300 0.000000 -0.689500
vn -0.999600 0.000000 0.027700
vn -0.689500 0.000000 0.724300
vn 0.027700 0.000000 0.999600
vn 0.000000 1.000000 0.000000
vn 0.000000 -1.000000 0.000000
usemtl madeira
s 1
f 1/1/1 9/2/1 10/3/1 2/4/1
f 9/2/1 17/5/1 18/6/1 10/3/1
f 28/4/2 27/3/2 29/7/2 30/8/2
f 10/3/2 18/6/2 19/9/2 11/7/2
f 3/8/3 11/7/3 12/10/3 4/11/3
f 11/7/3 19/9/3 20/12/3 12/10/3
f 4/11/4 12/10/4 13/13/4 5/14/4
f 12/10/4 20/12/4 21/15/4 13/13/4
f 5/14/5 13/13/5 14/16/5 6/17/5
f 13/13/5 21/15/5 22/18/5 14/16/5
f 32/17/6 31/16/6 33/19/6 34/20/6
f 14/16/6 22/18/6 23/21/6 15/19/6
f 7/20/7 15/19/7 16/22/7 8/23/7
f 15/19/7 23/21/7 24/24/7 16/22/7
f 8/23/8 16/22/8 9/25/8 1/26/8
f 16/22/8 24/24/8 17/27/8 9/25/8
f 1/5/9 2/6/9 25/1/9
f 2/6/9 3/9/9 25/1/9
f 3/9/9 4/12/9 25/1/9
f 4/12/9 5/15/9 25/1/9
f 5/15/9 6/18/9 25/1/9
f 6/18/9 7/21/9 25/1/9
f 7/21/9 8/24/9 25/1/9
f 8/24/9 1/27/9 25/1/9
f 18/4/10 17/1/10 26/5/10
f 19/8/10 18/4/10 26/5/10
f 20/11/10 19/8/10 26/5/10
f 21/14/10 20/11/10 26/5/10
f 22/17/10 21/14/10 26/5/10
f 23/20/10 22/17/10 26/5/10
f 24/23/10 23/20/10 26/5/10
f 17/26/10 24/23/10 26/5/10
f 2/5/8 10/5/8 27/5/8 28/5/8
f 10/5/10 11/5/10 29/5/10 27/5/10
f 11/5/4 3/5/4 30/5/4 29/5/4
f 3/5/9 2/5/9 28/5/9 30/5/9
f 6/5/4 14/5/4 31/5/4 32/5/4
f 14/5/10 15/5/10 33/5/10 31/5/10
f 15/5/8 7/5/8 34/5/8 33/5/8
f 7/5/9 6/5/9 32/5/9 34/5/9
o Cone
v -0.000800 1.350416 0.000000
v -0.000800 0.950416 0.035000
v 0.052300 0.950416 0.024780
v 0.074200 0.950416 0.000000
v 0.052300 0.950416 -0.024780
v -0.000800 0.950416 -0.035000
v -0.053900 0.950416 -0.024780
v -0.075800 0.950416 0.000000
v -0.053900 0.950416 0.024780
v -0.000800 0.950416 0.000000
vt 0.000000 1.000000
vt 0.000000 0.000000
vt 0.125000 0.000000
vt 0.125000 1.000000
vt 0.250000 0.000000
vt 0.250000 1.000000
vt 0.375000 0.000000
vt 0.375000 1.000000
vt 0.500000 0.000000
vt 0.500000 1.000000
vt 0.625000 0.000000
vt 0.625000 1.000000
vt 0.750000 0.000000
vt 0.750000 1.000000
vt 0.875000 0.000000
vt 0.875000 1.000000
vt 1.000000 0.000000
vt 1.000000 1.000000
vn 0.378800 0.114800 0.918300
vn 0.918300 0.114800 0.378800
vn 0.918300 0.114800 -0.378800
vn 0.378800 0.114800 -0.918300
vn -0.378800 0.114800 -0.918300
vn -0.918300 0.114800 -0.378800
vn -0.918300 0.114800 0.378800
vn -0.378800 0.114800 0.918300
vn 0.000000 -1.000000 0.000000
usemtl bronze
s 1
f 35/28/11 36/29/11 37/30/11
f 35/31/12 37/30/12 38/32/12
f 35/33/13 38/32/13 39/34/13
f 35/35/14 39/34/14 40/36/14
f 35/37/15 40/36/15 41/38/15
f 35/39/16 41/38/16 42/40/16
f 35/41/17 42/40/17 43/42/17
f 35/43/18 43/42/18 36/44/18
f 37/31/19 36/28/19 44/29/19
f 38/33/19 37/31/19 44/29/19
f 39/35/19 38/33/19 44/29/19
f 40/37/19 39/35/19 44/29/19
f 41/39/19 40/37/19 44/29/19
f 42/41/19 41/39/19 44/29/19
f 43/43/19 42/41/19 44/29/19
f 36/45/19 43/43/19 44/29/19
o Cylinder1
v 0.000000 0.950200 0.036000
v 0.052638 0.950200 0.025470
v 0.074400 0.950200 0.000000
v 0.052638 0.950200 -0.025470
v 0.000000 0.950200 -0.036000
v -0.052638 0.950200 -0.025470
v -0.074400 0.950200 0.000000
v -0.052638 0.950200 0.025470
v 0.000000 0.900200 0.011250
v 0.016461 0.900200 0.007965
v 0.023250 0.900200 0.000000
v 0.016461 0.900200 -0.007965
v 0.000000 0.900200 -0.011250
v -0.016461 0.900200 -0.007965
v -0.023250 0.900200 0.000000
v -0.016461 0.900200 0.007965
v 0.000000 0.950200 0.000000
v 0.000000 0.900200 0.000000
vt 0.000000 1.000000
vt 0.000000 0.000000
vt 0.125000 0.000000
vt 0.125000 1.000000
vt 0.250000 0.000000
vt 0.250000 1.000000
vt 0.375000 0.000000
vt 0.375000 1.000000
vt 0.500000 0.000000
vt 0.500000 1.000000
vt 0.625000 0.000000
vt 0.625000 1.000000
vt 0.750000 0.000000
vt 0.750000 1.000000
vt 0.875000 0.000000
vt 0.875000 1.000000
vt 1.000000 0.000000
vt 1.000000 1.000000
vn 0.176400 -0.436600 0.882200
vn 0.600300 -0.613900 0.512600
vn 0.600300 -0.613900 -0.512600
vn 0.176400 -0.436600 -0.882200
vn -0.176400 -0.436600 -0.882200
vn -0.600300 -0.613900 -0.512600
vn -0.600300 -0.613900 0.512600
vn -0.176400 -0.436600 0.882200
vn 0.000000 1.000000 0.000000
vn 0.000000 -1.000000 -0.000000
usemtl bronze
s 1
f 45/46/20 53/47/20 54/48/20 46/49/20
f 46/49/21 54/48/21 55/50/21 47/51/21
f 47/51/22 55/50/22 56/52/22 48/53/22
f 48/53/23 56/52/23 57/54/23 49/55/23
f 49/55/24 57/54/24 58/56/24 50/57/24
f 50/57/25 58/56/25 59/58/25 51/59/25
f 51/59/26 59/58/26 60/60/26 52/61/26
f 52/61/27 60/60/27 53/62/27 45/63/27
f 45/47/28 46/48/28 61/46/28
f 46/48/28 47/50/28 61/46/28
f 47/50/28 48/52/28 61/46/28
f 48/52/28 49/54/28 61/46/28
f 49/54/28 50/56/28 61/46/28
f 50/56/28 51/58/28 61/46/28
f 51/58/28 52/60/28 61/46/28
f 52/60/28 45/62/28 61/46/28
f 54/49/29 53/46/29 62/47/29
f 55/51/29 54/49/29 62/47/29
f 56/53/29 55/51/29 62/47/29
f 57/55/29 56/53/29 62/47/29
f 58/57/29 57/55/29 62/47/29
f 59/59/29 58/57/29 62/47/29
f 60/61/29 59/59/29 62/47/29
f 53/63/29 60/61/29 62/47/29
